<svg xmlns="http://www.w3.org/2000/svg" xmlns:xlink="http://www.w3.org/1999/xlink"><symbol viewBox="0 0 13 22" id="icon-arrow" xmlns="http://www.w3.org/2000/svg"><path d="m2.46 21.005 10.252-10.252L2.459.5.75 2.208l8.546 8.544L.75 19.297l1.71 1.708Z"/></symbol><symbol viewBox="0 0 67 62" id="icon-atom" xmlns="http://www.w3.org/2000/svg"><path d="M39.937 14.892a.865.865 0 0 1-.284 0 17.312 17.312 0 0 1-6.895-3.582 1.09 1.09 0 1 1 1.493-1.582 15.55 15.55 0 0 0 5.97 2.985 1.09 1.09 0 0 1-.284 2.134v.045Z"/><path d="M43.593 61.38a4.122 4.122 0 0 1-1.12-.149 4.686 4.686 0 0 1-3.267-4.641v-5.97a6.193 6.193 0 0 0-5.702-6.566c-3.134 0-5.7 2.985-5.7 6.566v5.97a4.686 4.686 0 0 1-3.269 4.641 4.149 4.149 0 0 1-4.701-1.955c-8.716-14.103-8.775-35.638-8.775-36.549 0-8.954 6.507-16.237 14.506-16.237 2.864.005 5.649.937 7.94 2.656a13.297 13.297 0 0 1 7.94-2.656c7.998 0 14.505 7.283 14.505 16.237 0 .91 0 22.386-8.775 36.55a4.209 4.209 0 0 1-3.582 2.104ZM33.504 41.816c4.343 0 7.88 3.925 7.88 8.746v5.97a2.463 2.463 0 0 0 1.687 2.536 1.94 1.94 0 0 0 2.253-1c8.388-13.566 8.447-35.19 8.447-35.4 0-7.76-5.536-14.058-12.327-14.058a11.18 11.18 0 0 0-7.238 2.701 1.12 1.12 0 0 1-1.403 0 11.179 11.179 0 0 0-7.238-2.701c-6.79 0-12.328 6.298-12.328 14.059 0 .208 0 21.834 8.448 35.4a1.954 1.954 0 0 0 2.253 1 2.462 2.462 0 0 0 1.702-2.538v-5.97c0-4.865 3.521-8.79 7.864-8.79v.045Z"/><path d="M33.504 34.025C21.954 34.025.12 32.533.12 26.98c0-.896 0-3.612 11.94-5.537a1.06 1.06 0 0 1 1.238.895 1.09 1.09 0 0 1-.895 1.254C4.06 24.935 2.359 26.577 2.359 26.98c0 1.656 11.029 4.865 31.221 4.865s31.22-3.208 31.22-4.864c0-.373-1.701-2.045-10.044-3.388a1.09 1.09 0 1 1 .358-2.15C66.98 23.37 66.98 26.086 66.98 26.982c-.074 5.566-21.923 7.044-33.475 7.044Z"/><path d="M11.745 48.785a2.506 2.506 0 0 1-1.85-.672c-.97-.97-1.717-3.06 2.984-10.089a1.09 1.09 0 1 1 1.82 1.194c-3.506 5.283-3.432 7.149-3.223 7.358 1.164 1.179 11.238-4.343 25.52-18.625C51.28 13.668 56.787 3.594 55.623 2.43c-.284-.284-3.239-.12-11.432 6.133a1.09 1.09 0 0 1-1.328-1.716C54.338-1.928 56.458.192 57.159.878c3.94 3.94-10.447 20.416-18.625 28.595-7.268 7.223-20.969 19.312-26.789 19.312Z"/><path d="M55.233 48.844c-1.596 0-4.298-.97-9.163-4.313a133.274 133.274 0 0 1-17.55-15.043 135.552 135.552 0 0 1-15.044-17.536C8.133 4.176 8.864 1.922 9.894.893c.701-.701 2.82-2.82 14.297 5.97a1.09 1.09 0 1 1-1.328 1.716C14.685 2.326 11.73 2.147 11.431 2.445c-.298.299-.268 2.328 3.836 8.283A132.206 132.206 0 0 0 30.07 27.965C44.354 42.248 54.413 47.77 55.577 46.591c.209-.21.283-2.075-3.209-7.358a1.09 1.09 0 1 1 1.806-1.194c4.656 7.03 3.91 9.119 2.985 10.089a2.447 2.447 0 0 1-1.925.716Z"/></symbol><symbol viewBox="0 0 66 44" id="icon-brakets" xmlns="http://www.w3.org/2000/svg"><path d="M21.687 17.788h-9.623a4.27 4.27 0 0 1-4.27-4.114v-.285c0-7.117 4.057-13.025 9.04-13.025 4.981 0 9.052 5.85 9.052 13.025v.285a4.27 4.27 0 0 1-4.199 4.114ZM16.876 2.443c-3.844 0-6.961 4.91-6.961 10.946v.256a2.135 2.135 0 0 0 2.15 2.064h9.622a2.15 2.15 0 0 0 2.164-2.064v-.256c0-6.035-3.103-10.946-6.975-10.946Z"/><path d="M18.513 13.588h-3.26a1.95 1.95 0 0 1-1.95-1.935v-3.26a1.964 1.964 0 0 1 1.95-1.95h3.26a1.95 1.95 0 0 1 1.936 1.95v3.26a1.936 1.936 0 0 1-1.936 1.935Zm-3.132-2.078h2.99V8.52h-2.99v2.99Z"/><path d="M16.876 8.52a1.04 1.04 0 0 1-1.04-1.038V6.3a1.04 1.04 0 0 1 2.079 0v1.224a1.039 1.039 0 0 1-1.04.997Zm0 5.823a1.04 1.04 0 0 1-1.04-1.04v-.754a1.04 1.04 0 0 1 2.079 0v.755a1.04 1.04 0 0 1-1.04 1.039Zm20.825 3.445H28.08a4.27 4.27 0 0 1-4.27-4.114v-.285c0-7.117 4.056-13.025 9.038-13.025s9.054 5.85 9.054 13.025v.299a4.27 4.27 0 0 1-4.2 4.1ZM32.89 2.443c-3.843 0-6.96 4.91-6.96 10.946v.256a2.135 2.135 0 0 0 2.149 2.064H37.7a2.15 2.15 0 0 0 2.164-2.064v-.256c0-6.035-3.132-10.946-6.975-10.946Z"/><path d="M34.527 13.588h-3.26a1.935 1.935 0 0 1-1.978-1.935v-3.26a1.95 1.95 0 0 1 1.935-1.95h3.26a1.95 1.95 0 0 1 1.922 1.95v3.26a1.936 1.936 0 0 1-1.879 1.935Zm-3.132-2.078h2.99V8.52h-2.99v2.99Z"/><path d="M32.89 8.52a1.04 1.04 0 0 1-1.04-1.038V6.3a1.04 1.04 0 0 1 2.079 0v1.224a1.04 1.04 0 0 1-1.04.997Zm0 5.823a1.04 1.04 0 0 1-1.04-1.04v-.754a1.04 1.04 0 0 1 2.079 0v.755a1.04 1.04 0 0 1-1.04 1.039Zm20.825 3.445h-9.622a4.27 4.27 0 0 1-4.27-4.114v-.285c0-7.117 4.056-13.025 9.038-13.025 4.983 0 9.054 5.85 9.054 13.025v.299a4.27 4.27 0 0 1-4.2 4.1Zm-4.81-15.345c-3.844 0-6.962 4.91-6.962 10.946v.256a2.135 2.135 0 0 0 2.15 2.064h9.622a2.15 2.15 0 0 0 2.164-2.064v-.256c0-6.035-3.131-10.946-6.975-10.946Z"/><path d="M50.54 13.588h-3.259a1.936 1.936 0 0 1-1.936-1.935v-3.26a1.95 1.95 0 0 1 1.936-1.95h3.26a1.95 1.95 0 0 1 1.936 1.95v3.26a1.936 1.936 0 0 1-1.936 1.935Zm-3.13-2.078h2.989V8.52h-2.99v2.99Z"/><path d="M48.904 8.52a1.04 1.04 0 0 1-1.039-1.038V6.3a1.04 1.04 0 0 1 2.078 0v1.224a1.039 1.039 0 0 1-1.039.997Zm0 5.823a1.04 1.04 0 0 1-1.039-1.04v-.754a1.04 1.04 0 0 1 2.078 0v.755a1.04 1.04 0 0 1-1.039 1.039Z"/><path d="M35.424 11.04a1.068 1.068 0 0 1-.726-.298 1.054 1.054 0 0 1-.313-.74V8.577h-2.99V10a1.11 1.11 0 0 1-.299.74 1.01 1.01 0 0 1-.754.3c-3.843 0-7.559-.214-11.018-.485a1.039 1.039 0 0 1-.954-1.039V8.52h-2.989v.498a1.025 1.025 0 0 1-1.153 1.04C.705 8.42.705 5.901.705 4.961a1.04 1.04 0 0 1 2.064 0c.242.484 2.577 1.88 10.62 2.933a1.936 1.936 0 0 1 1.864-1.424h3.26a1.95 1.95 0 0 1 1.936 1.95v.171c2.847.2 5.793.327 8.882.384V8.42a1.95 1.95 0 0 1 1.936-1.95h3.26a1.95 1.95 0 0 1 1.88 1.922v.555c3.074 0 6.063-.185 8.882-.384v-.171a1.95 1.95 0 0 1 1.935-1.95h3.26a1.95 1.95 0 0 1 1.865 1.423C60.477 6.798 62.77 5.39 62.97 4.92a1.012 1.012 0 0 1 1.426-.926 1.054 1.054 0 0 1 .637.982c0 .94 0 3.46-13.523 5.096a1.053 1.053 0 0 1-1.167-1.039v-.498h-2.99v.997a1.04 1.04 0 0 1-.953 1.039c-3.46.27-7.117.427-11.018.484l.043-.014ZM16.875 43.111c-4.982 0-9.039-5.85-9.039-13.024v-.285a4.27 4.27 0 0 1 4.27-4.114h9.624a4.27 4.27 0 0 1 4.27 4.1v.299c-.071 7.174-4.128 13.024-9.125 13.024Zm-4.81-15.345a2.135 2.135 0 0 0-2.15 2.064v.257c0 6.035 3.117 10.946 6.96 10.946 3.844 0 6.976-4.91 6.976-10.947v-.256a2.15 2.15 0 0 0-2.164-2.064h-9.623Z"/><path d="M18.513 37.019h-3.26a1.95 1.95 0 0 1-1.95-1.936v-3.26a1.95 1.95 0 0 1 1.95-1.936h3.26a1.936 1.936 0 0 1 1.936 1.936v3.26a1.936 1.936 0 0 1-1.936 1.936Zm-3.132-2.064h2.99v-2.99h-2.99v2.99Z"/><path d="M16.876 38.215a1.04 1.04 0 0 1-1.04-1.04v-1.181a1.04 1.04 0 1 1 2.065 0v1.181a1.039 1.039 0 0 1-1.025 1.04Zm0-6.249a1.04 1.04 0 0 1-1.04-1.04v-.754a1.04 1.04 0 0 1 2.079 0v.754a1.04 1.04 0 0 1-1.04 1.04ZM32.89 43.111c-4.983 0-9.04-5.85-9.04-13.024v-.285a4.27 4.27 0 0 1 4.271-4.114h9.623a4.27 4.27 0 0 1 4.27 4.1v.299c-.07 7.174-4.185 13.024-9.124 13.024Zm-4.812-15.345a2.135 2.135 0 0 0-2.15 2.064v.257c0 6.035 3.118 10.946 6.962 10.946 3.843 0 6.975-4.91 6.975-10.947v-.256a2.15 2.15 0 0 0-2.164-2.064h-9.623Z"/><path d="M34.527 37.019h-3.26a1.935 1.935 0 0 1-1.978-1.936v-3.26a1.936 1.936 0 0 1 1.935-1.936h3.26a1.936 1.936 0 0 1 1.922 1.936v3.26a1.936 1.936 0 0 1-1.879 1.936Zm-3.132-2.064h2.99v-2.99h-2.99v2.99Z"/><path d="M32.89 38.215a1.04 1.04 0 0 1-1.04-1.04v-1.18a1.04 1.04 0 0 1 2.079 0v1.18a1.04 1.04 0 0 1-1.04 1.04Zm0-6.249a1.04 1.04 0 0 1-1.04-1.04v-.754a1.04 1.04 0 0 1 2.079 0v.754a1.04 1.04 0 0 1-1.04 1.04Zm16.014 11.145c-4.982 0-9.04-5.85-9.04-13.024v-.3a4.27 4.27 0 0 1 4.271-4.099h9.623a4.27 4.27 0 0 1 4.27 4.1v.299c-.07 7.174-4.128 13.024-9.124 13.024Zm-4.812-15.345a2.135 2.135 0 0 0-2.149 2.064v.257c0 6.035 3.117 10.946 6.96 10.946 3.844 0 6.976-4.91 6.976-10.947v-.256a2.15 2.15 0 0 0-2.164-2.064h-9.623Z"/><path d="M50.54 37.019h-3.259a1.936 1.936 0 0 1-1.936-1.936v-3.26a1.936 1.936 0 0 1 1.936-1.936h3.26a1.936 1.936 0 0 1 1.936 1.936v3.26a1.936 1.936 0 0 1-1.936 1.936Zm-3.13-2.064h2.989v-2.99h-2.99v2.99Z"/><path d="M48.904 38.215a1.04 1.04 0 0 1-1.039-1.04v-1.18a1.039 1.039 0 1 1 2.078 0v1.18a1.04 1.04 0 0 1-1.039 1.04Zm0-6.249a1.04 1.04 0 0 1-1.039-1.04v-.754a1.039 1.039 0 1 1 2.078 0v.754a1.04 1.04 0 0 1-1.039 1.04Z"/><path d="M1.73 39.581a1.054 1.054 0 0 1-1.025-1.068c0-.939 0-3.459 13.523-5.096a1.026 1.026 0 0 1 1.153 1.04v.498h2.99v-.997a1.039 1.039 0 0 1 .953-1.039c3.46-.27 7.118-.427 11.018-.484a1.012 1.012 0 0 1 .755.3c.19.199.297.464.298.74v1.423h2.99v-1.424a1.04 1.04 0 0 1 .313-.74.999.999 0 0 1 .74-.299c3.858 0 7.573.214 11.018.484a1.039 1.039 0 0 1 .954 1.04v.996h2.989v-.498a1.053 1.053 0 0 1 1.167-1.04c13.523 1.637 13.523 4.157 13.523 5.096a1.04 1.04 0 0 1-2.078 0c-.185-.412-2.477-1.822-10.605-2.846a1.936 1.936 0 0 1-1.865 1.423h-3.26a1.936 1.936 0 0 1-1.935-1.936v-.17c-2.847-.2-5.794-.328-8.883-.385v.555a1.936 1.936 0 0 1-1.936 1.936h-3.26a1.936 1.936 0 0 1-1.978-2.007v-.513c-3.09 0-6.064.185-8.883.385v.17a1.936 1.936 0 0 1-1.936 1.937h-3.217a1.935 1.935 0 0 1-1.865-1.424C5.26 36.706 2.954 38.115 2.77 38.585a1.01 1.01 0 0 1-1.039.996Z"/></symbol><symbol viewBox="0 0 18 21" id="icon-calendar" xmlns="http://www.w3.org/2000/svg"><path d="M16 20.928H2a2 2 0 0 1-2-2v-14a2 2 0 0 1 2-2h2v-2h2v2h6v-2h2v2h2a2 2 0 0 1 2 2v14a2 2 0 0 1-2 2Zm-14-12v10h14v-10H2Zm0-4v2h14v-2H2Zm12 12h-2v-2h2v2Zm-4 0H8v-2h2v2Zm-4 0H4v-2h2v2Zm8-4h-2v-2h2v2Zm-4 0H8v-2h2v2Zm-4 0H4v-2h2v2Z"/></symbol><symbol viewBox="0 0 30 40" id="icon-chair" xmlns="http://www.w3.org/2000/svg"><path d="M29.254 19.708h-4.405l-1.706-7.087a.63.63 0 0 0-.612-.482H8.617L6.374.766A.631.631 0 0 0 5.64.268l-4.207.786a.63.63 0 0 0-.504.736l4.29 22.976a.63.63 0 0 0 .62.514.622.622 0 0 0 .188-.032h12.067v8.984H9.995a.63.63 0 0 0-.63.63v4.188c0 .348.282.63.63.63H27.45a.63.63 0 0 0 .63-.63v-4.188a.63.63 0 0 0-.63-.63h-8.096v-8.984h9.9a.63.63 0 0 0 .63-.63v-4.28a.63.63 0 0 0-.63-.63ZM26.82 38.42H10.625v-2.928H26.82v2.928ZM22.035 13.4l1.518 6.308H10.11l-1.244-6.309h13.169ZM2.284 2.176l2.974-.555 3.656 18.535-2.695 3.096L2.284 2.177Zm26.34 21.81H7.25l2.628-3.02h18.745v3.02Z"/></symbol><symbol viewBox="0 0 61 62" id="icon-clean" xmlns="http://www.w3.org/2000/svg"><path d="M11.628 61.937a3.887 3.887 0 0 1-3.288-1.88C5.18 55.09 4.767 51.29 4.297 46.89a88.392 88.392 0 0 0-.47-3.786 19.929 19.929 0 0 1-3.16-8.911c-.355-3.73-.355-6.178-.355-6.278 0-7.9 5.921-14.32 13.195-14.32a1.04 1.04 0 1 1 0 2.078c-6.135 0-11.117 5.495-11.117 12.242 0 0 0 2.463.341 6.078a17.651 17.651 0 0 0 2.847 8.129.867.867 0 0 1 .157.412c.228 1.424.37 2.847.512 4.1.456 4.27.826 7.715 3.73 12.285a1.765 1.765 0 0 0 2.036.84 2.106 2.106 0 0 0 1.423-2.136v-5.28a7.205 7.205 0 0 1 7.181-7.758 7.201 7.201 0 0 1 7.182 7.757v5.281a2.107 2.107 0 0 0 1.424 2.136 1.779 1.779 0 0 0 2.035-.84 21.436 21.436 0 0 0 3.032-7.317 1.039 1.039 0 0 1 1.224-.811 1.053 1.053 0 0 1 .812 1.238 23.132 23.132 0 0 1-3.331 8 3.829 3.829 0 0 1-4.356 1.722 4.27 4.27 0 0 1-2.947-4.128v-5.28a5.138 5.138 0 0 0-9.998-2.127c-.222.685-.298 1.41-.222 2.126v5.281a4.27 4.27 0 0 1-2.947 4.128 4.141 4.141 0 0 1-.897.186Zm47.431-17.31a1.068 1.068 0 0 1-.897-.498L33.835 3.459c-.194-.31-.5-.534-.855-.626a1.31 1.31 0 0 0-1.053.157 1.323 1.323 0 0 0-.626.854 1.326 1.326 0 0 0 .156 1.054L52.64 40.3a1.039 1.039 0 0 1-1.78 1.067L29.664 5.951a3.46 3.46 0 0 1 1.195-4.74 3.445 3.445 0 0 1 4.755 1.181l24.327 40.67a1.025 1.025 0 0 1-.882 1.565Z"/><path d="M35.828 48.67a.998.998 0 0 1-.826-.428 1.025 1.025 0 0 1-.128-1.024c3.103-7.303-4.812-12.613-5.153-12.812a1.01 1.01 0 0 1-.47-.811 1.067 1.067 0 0 1 .384-.868c2.121-1.694 2.164-3.274 1.936-4.171-7.644 3.003-14.59-3.915-14.89-4.27a1.025 1.025 0 0 1 .485-1.737c4.683-1.182 6.548-2.392 7.288-3.146-5.139-.94-8.157-8.043-8.285-8.37a1.026 1.026 0 0 1 .214-1.125.982.982 0 0 1 1.096-.242c.27.085 6.676 2.335 13.736-3.018a1.053 1.053 0 0 1 1.424.2 1.039 1.039 0 0 1-.2 1.423 17.935 17.935 0 0 1-13.437 3.83c1.281 2.206 3.73 5.508 6.833 5.28a1.04 1.04 0 0 1 1.053.726 2.347 2.347 0 0 1-.299 1.808c-.882 1.58-3.245 2.947-7.046 4.086 2.334 1.779 7.217 4.612 12.043 2.177a1.011 1.011 0 0 1 1.31.328 5.409 5.409 0 0 1-1.04 6.875c2.206 1.822 7.004 6.591 5.48 12.812 2.99-.74 9.196-2.99 11.388-9.168a1.04 1.04 0 0 1 1.324-.626 1.053 1.053 0 0 1 .627 1.338c-3.388 9.438-14.335 10.79-14.805 10.847l-.042.086ZM8.411 25.823a1.025 1.025 0 0 1-1.024-1.04v-1.167a1.039 1.039 0 1 1 2.064 0v1.168a1.024 1.024 0 0 1-1.04 1.039Zm0 5.879a1.025 1.025 0 0 1-1.024-1.04v-1.167a1.039 1.039 0 1 1 2.064 0v1.168a1.024 1.024 0 0 1-1.04 1.039Zm3.53-3.53h-1.167a1.04 1.04 0 0 1-.433-2.024c.14-.044.287-.058.433-.04h1.167a1.037 1.037 0 0 1 1.16 1.032 1.04 1.04 0 0 1-1.16 1.032Zm-5.878 0H4.895a1.04 1.04 0 0 1-.812-1.81 1.038 1.038 0 0 1 .812-.254h1.168a1.037 1.037 0 0 1 1.16 1.032 1.04 1.04 0 0 1-1.16 1.032Z"/></symbol><symbol viewBox="0 0 28 39" id="icon-doctor" xmlns="http://www.w3.org/2000/svg"><path d="M13.698 24.5C6.242 24.5.176 30.567.176 38.023c0 .364.294.658.657.658h25.73a.657.657 0 0 0 .658-.658c0-7.456-6.066-13.523-13.523-13.523ZM1.508 37.365c.343-6.426 5.68-11.55 12.19-11.55s11.848 5.124 12.19 11.55H1.508Zm11.967-14.067c4.313 0 7.823-3.51 7.823-7.825 0-1.525-.44-2.995-1.267-4.264v-9.7a.657.657 0 0 0-.658-.658H7.578a.657.657 0 0 0-.657.657v9.696a7.79 7.79 0 0 0-1.27 4.269c0 4.315 3.51 7.825 7.824 7.825ZM8.235 2.166h10.48v8.745H8.235V2.166Zm-.399 10.06h11.28a6.516 6.516 0 0 1-5.641 9.757 6.517 6.517 0 0 1-6.508-6.51c0-1.148.3-2.261.87-3.247Z"/><path d="M15.767 5.954h-1.634V4.317a.657.657 0 1 0-1.315 0v1.637h-1.634a.657.657 0 1 0 0 1.315h1.634v1.634a.657.657 0 1 0 1.315 0V7.27h1.634a.657.657 0 1 0 0-1.315Z"/></symbol><symbol viewBox="0 0 16 16" id="icon-google" xmlns="http://www.w3.org/2000/svg"><path d="M8.26 6.738v2.961h4.111c-.382 1.882-1.984 2.963-4.112 2.963a4.53 4.53 0 0 1 0-9.06 4.433 4.433 0 0 1 2.824 1.01l2.23-2.23A7.662 7.662 0 1 0 8.26 15.796c3.833 0 7.32-2.788 7.32-7.666a6.409 6.409 0 0 0-.173-1.394H8.26Z"/></symbol><symbol viewBox="0 0 77 80" id="icon-hirurh" xmlns="http://www.w3.org/2000/svg"><path d="M56.564 28.11a1.283 1.283 0 0 1-.65-.172 15.793 15.793 0 0 1-5.03-4.79 1.25 1.25 0 0 1 .444-1.712 1.215 1.215 0 0 1 1.711.428 13.45 13.45 0 0 0 4.193 3.935 1.25 1.25 0 0 1 .41 1.712 1.198 1.198 0 0 1-1.078.599Z"/><path d="M49.018 68.15A3.935 3.935 0 0 1 47 67.567a4.398 4.398 0 0 1-1.711-5.031l1.454-5.133a5.835 5.835 0 0 0-.273-4.176 4.33 4.33 0 0 0-2.721-2.378 4.397 4.397 0 0 0-3.576.565 5.903 5.903 0 0 0-2.464 3.422l-1.455 5.133a4.38 4.38 0 0 1-4.158 3.32 3.901 3.901 0 0 1-3.781-2.995c-3.936-14.065 1.266-32.323 1.488-33.093 2.225-7.7 9.634-12.337 16.53-10.266a11.874 11.874 0 0 1 6.057 4.107 11.977 11.977 0 0 1 7.324-.257 12.336 12.336 0 0 1 7.7 6.707 15.4 15.4 0 0 1 .77 10.866c-.223.77-5.527 18.993-16.342 28.798a4.09 4.09 0 0 1-2.823.992ZM42.55 48.231c.62 0 1.236.086 1.831.257a6.844 6.844 0 0 1 4.278 3.73 8.282 8.282 0 0 1 .445 5.92l-1.472 5.134a1.9 1.9 0 0 0 .685 2.224 1.437 1.437 0 0 0 1.71-.274C60.295 55.881 65.6 37.846 65.65 37.59c.907-3.01.681-6.248-.633-9.103a9.77 9.77 0 0 0-6.143-5.373 9.582 9.582 0 0 0-6.553.496 1.266 1.266 0 0 1-1.54-.445 9.566 9.566 0 0 0-5.185-3.97c-5.578-1.608-11.601 2.276-13.45 8.659 0 .17-5.133 18.343-1.488 31.724a1.455 1.455 0 0 0 1.386 1.18 1.916 1.916 0 0 0 1.711-1.523l1.454-5.133a8.385 8.385 0 0 1 3.525-4.79 7.15 7.15 0 0 1 3.867-1.079h-.05Z"/><path d="M41.079 79.272a20.38 20.38 0 0 1-18.72-11.567 10.147 10.147 0 0 0-9.188-6.177H6.686a1.25 1.25 0 1 1 0-2.482h6.485a12.61 12.61 0 0 1 11.464 7.632 18.445 18.445 0 0 0 32.888 0 12.594 12.594 0 0 1 11.464-7.632h6.485a1.25 1.25 0 1 1 0 2.482h-6.485a10.268 10.268 0 0 0-9.205 6.177 20.345 20.345 0 0 1-18.703 11.567ZM11.51 36.254a5.561 5.561 0 0 1-5.44-4.449L.097 2.22A1.215 1.215 0 0 1 1.108.732a1.232 1.232 0 0 1 1.47.975l5.973 29.568a3.063 3.063 0 0 0 3.593 2.395 3.114 3.114 0 0 0 1.95-1.317 3.08 3.08 0 0 0 .445-2.293l-3.764-18.394a1.25 1.25 0 0 1 2.447-.48l3.73 18.43a5.51 5.51 0 0 1-.821 4.157 5.595 5.595 0 0 1-3.525 2.379 5.933 5.933 0 0 1-1.095.102Z"/><path d="M25.166 59.714a1.467 1.467 0 0 1-.462 0L11.152 54.22a1.248 1.248 0 0 1-.65-1.711l2.891-6.143-2.258-11.14a1.249 1.249 0 0 1 .975-1.47 1.233 1.233 0 0 1 1.471.975l2.345 11.532c.053.267.017.544-.103.788l-2.498 5.321 12.303 4.997a1.25 1.25 0 0 1 .701 1.71 1.267 1.267 0 0 1-1.163.634Zm14.509-25.53a1.232 1.232 0 0 1-1.164-.787l-1.386-3.576a1.266 1.266 0 0 1 0-.873l1.232-3.422-2.566-5.561a1.25 1.25 0 1 1 2.258-1.044l2.79 6.006c.119.302.119.639 0 .94l-1.25 3.526 1.232 3.063a1.284 1.284 0 0 1-1.146 1.728Z"/><path d="M42.722 27.682a1.42 1.42 0 0 1-.376 0l-3.046-.959a1.266 1.266 0 0 1-.822-1.574 1.233 1.233 0 0 1 1.575-.804l3.046.958a1.25 1.25 0 0 1-.377 2.43v-.051Z"/></symbol><symbol viewBox="0 0 60 77" id="icon-implant" xmlns="http://www.w3.org/2000/svg"><path d="M36.834 10.123h-.332a19.56 19.56 0 0 1-7.628-3.971 1.281 1.281 0 1 1 1.75-1.873 16.848 16.848 0 0 0 6.543 3.377 1.277 1.277 0 0 1-.333 2.502v-.035Z"/><path d="M39.878 45.675H19.566A12.598 12.598 0 0 1 7.16 34.897L5.2 21.145a19.368 19.368 0 0 1 .91-9.465A16.114 16.114 0 0 1 20.931.64a14.784 14.784 0 0 1 8.747 2.922A14.732 14.732 0 0 1 38.426.64a16.114 16.114 0 0 1 14.907 11.11 19.368 19.368 0 0 1 .91 9.465l-1.96 13.752a12.597 12.597 0 0 1-12.405 10.708ZM20.983 3.195a13.612 13.612 0 0 0-12.44 9.377 16.849 16.849 0 0 0-.752 8.224l1.942 13.751a10.043 10.043 0 0 0 9.885 8.573h20.26a10.043 10.043 0 0 0 9.886-8.573l1.942-13.751a16.848 16.848 0 0 0-.753-8.224 13.612 13.612 0 0 0-12.457-9.377 12.247 12.247 0 0 0-7.925 2.974 1.312 1.312 0 0 1-1.645 0 12.247 12.247 0 0 0-7.943-2.974Z"/><path d="M29.748 76.188a1.277 1.277 0 0 1-1.242-.98 1.295 1.295 0 0 1 .945-1.54l1.137-.262-11.023-.42a1.278 1.278 0 0 1-1.224-1.155 1.312 1.312 0 0 1 .98-1.365l11.267-2.729-11.005-.455a1.295 1.295 0 0 1-1.225-1.154 1.277 1.277 0 0 1 .98-1.365l11.232-2.66-11.005-.454a1.277 1.277 0 0 1-.245-2.502l11.25-2.66-11.005-.455a1.277 1.277 0 0 1-.245-2.52l11.233-2.658-11.005-.455a1.26 1.26 0 0 1-.228-2.502l20.26-4.654a1.278 1.278 0 1 1 .578 2.484l-11.232 2.66 11.005.455a1.26 1.26 0 0 1 1.224 1.137 1.277 1.277 0 0 1-.98 1.364l-11.232 2.66 11.005.455a1.278 1.278 0 0 1 .228 2.52l-11.233 2.658 11.005.438a1.312 1.312 0 0 1 1.225 1.155 1.277 1.277 0 0 1-.98 1.364l-11.25 2.66 11.005.455a1.278 1.278 0 0 1 .245 2.52l-11.232 2.641 11.005.455a1.277 1.277 0 0 1 1.207 1.155 1.26 1.26 0 0 1-.962 1.364l-10.148 2.31a.91.91 0 0 1-.315.035Zm18.616-7.611a1.26 1.26 0 0 1-1.05-.542 1.277 1.277 0 0 1 .315-1.75l9.413-6.456a1.284 1.284 0 0 1 1.452 2.117l-9.413 6.439a1.242 1.242 0 0 1-.717.192Zm.106-14.189a1.278 1.278 0 0 1-.718-2.327l9.413-6.456a1.278 1.278 0 1 1 1.434 2.1l-9.395 6.455a1.26 1.26 0 0 1-.735.228ZM11.15 68.577c-.257 0-.508-.08-.717-.227l-9.396-6.456a1.26 1.26 0 0 1-.332-1.75 1.277 1.277 0 0 1 1.75-.332l9.412 6.456a1.295 1.295 0 0 1 .333 1.75 1.313 1.313 0 0 1-1.05.56Zm-.105-14.189a1.208 1.208 0 0 1-.717-.228L.915 47.704a1.277 1.277 0 0 1-.332-1.75 1.26 1.26 0 0 1 1.75-.332l9.412 6.456a1.277 1.277 0 0 1-.717 2.327l.017-.017Z"/></symbol><symbol viewBox="0 0 17 16" id="icon-insta" xmlns="http://www.w3.org/2000/svg"><path d="M8.611 15.907c-2.11 0-2.36-.011-3.184-.048a5.65 5.65 0 0 1-1.874-.386 3.964 3.964 0 0 1-2.257-2.257 5.657 5.657 0 0 1-.36-1.877c-.048-.822-.048-1.091-.048-3.186 0-2.117.011-2.364.048-3.184.013-.64.135-1.274.36-1.874A3.956 3.956 0 0 1 3.556.837a5.606 5.606 0 0 1 1.873-.36C6.25.43 6.52.43 8.611.43c2.128 0 2.373.011 3.183.047a5.641 5.641 0 0 1 1.88.36 3.96 3.96 0 0 1 2.259 2.258 5.63 5.63 0 0 1 .361 1.903c.048.822.048 1.09.048 3.184 0 2.094-.012 2.368-.048 3.181a5.665 5.665 0 0 1-.36 1.878 3.968 3.968 0 0 1-2.26 2.259 5.7 5.7 0 0 1-1.876.36c-.82.047-1.088.047-3.187.047Zm-.03-14.118c-2.098 0-2.316.01-3.136.047a4.249 4.249 0 0 0-1.432.267 2.565 2.565 0 0 0-1.475 1.469 4.303 4.303 0 0 0-.267 1.447c-.045.832-.045 1.05-.045 3.134 0 2.06.008 2.31.045 3.135.008.49.098.974.267 1.433a2.567 2.567 0 0 0 1.475 1.469c.459.17.943.261 1.432.266.831.049 1.05.049 3.137.049 2.105 0 2.323-.01 3.135-.049a4.25 4.25 0 0 0 1.433-.266 2.574 2.574 0 0 0 1.468-1.467c.17-.464.26-.954.266-1.448h.01c.037-.82.037-1.04.037-3.136s-.01-2.317-.047-3.136a4.34 4.34 0 0 0-.266-1.431 2.574 2.574 0 0 0-1.468-1.47 4.242 4.242 0 0 0-1.433-.266c-.83-.047-1.047-.047-3.135-.047Zm.03 10.327a3.967 3.967 0 1 1-.005-7.933 3.967 3.967 0 0 1 .005 7.933Zm0-6.543a2.574 2.574 0 1 0 0 5.148 2.574 2.574 0 0 0 0-5.148Zm4.119-.612a.925.925 0 1 1 .007-1.85.925.925 0 0 1-.007 1.85Z"/></symbol><symbol viewBox="0 0 59 66" id="icon-koronka" xmlns="http://www.w3.org/2000/svg"><path d="M36.674 9.48h-.285a19.33 19.33 0 0 1-7.624-3.962 1.094 1.094 0 1 1 1.5-1.591 17.378 17.378 0 0 0 6.68 3.407 1.096 1.096 0 0 1-.286 2.146h.015Z"/><path d="M53.018 25.223h-.075a1.095 1.095 0 0 1-1.006-1.17c.255-3.513.255-5.779.255-5.809 0-8.69-6.213-15.773-13.837-15.773a12.561 12.561 0 0 0-8.134 3.002 1.126 1.126 0 0 1-1.41 0 12.561 12.561 0 0 0-8.134-3.002c-7.624 0-13.837 7.084-13.837 15.773 0 0 0 2.161.24 5.523a1.095 1.095 0 1 1-2.176.15c-.256-3.437-.256-5.583-.256-5.673C4.648 8.34 11.838.235 20.677.235c3.195.009 6.3 1.063 8.839 3.002a14.632 14.632 0 0 1 8.84-3.002c8.839 0 16.027 8.044 16.027 18.01 0 .09 0 2.355-.27 6.002a1.11 1.11 0 0 1-1.095.976Zm-12.276 40.52a4.729 4.729 0 0 1-1.2-.165 5.102 5.102 0 0 1-3.573-5.043v-6.708c0-4.112-2.896-7.504-6.453-7.504-3.557 0-6.453 3.332-6.453 7.504v6.709a5.118 5.118 0 0 1-3.557 5.042 4.503 4.503 0 0 1-5.118-2.131c-5.312-8.6-7.698-19.87-8.749-27.794a1.036 1.036 0 0 1 .255-.855 1.094 1.094 0 0 1 .826-.376h45.593a1.096 1.096 0 0 1 .825.376 1.035 1.035 0 0 1 .315.93c-1.05 7.939-3.437 19.195-8.75 27.794a4.576 4.576 0 0 1-3.961 2.221Zm-11.226-21.55c4.773 0 8.644 4.322 8.644 9.634v6.709a2.866 2.866 0 0 0 1.966 3.001 2.296 2.296 0 0 0 2.657-1.155c4.847-7.85 7.158-18.01 8.269-25.709H7.98c1.11 7.624 3.422 17.86 8.27 25.709a2.296 2.296 0 0 0 2.656 1.155 2.867 2.867 0 0 0 1.966-3.002v-6.708c0-5.282 3.872-9.605 8.644-9.605v-.03Z"/><path d="M41.702 30.896a1.096 1.096 0 0 1-.99-.63 12.366 12.366 0 0 0-22.392 0 1.11 1.11 0 0 1-1.186.615c-4.577-.826-12.246-2.822-12.246-7.024 0-5.283 12.396-8.044 24.628-8.044 12.23 0 24.627 2.761 24.627 8.044 0 4.202-7.669 6.198-12.246 7.024l-.195.015ZM29.516 20.96a14.617 14.617 0 0 1 12.786 7.608c6.648-1.29 9.65-3.346 9.65-4.712 0-2.446-8.54-5.853-22.436-5.853-13.897 0-22.512 3.407-22.512 5.853 0 1.38 3.002 3.422 9.65 4.712a14.618 14.618 0 0 1 12.862-7.608Z"/><path d="M42.947 36.629H15.934a1.08 1.08 0 0 1-1.081-1.081 14.573 14.573 0 0 1 29.145 0 1.08 1.08 0 0 1-1.05 1.08Zm-25.843-2.177h24.688a12.396 12.396 0 0 0-24.688 0Zm36.634-3.557a1.154 1.154 0 0 1-.9-.45 1.095 1.095 0 0 1 .254-1.5l3.617-2.597a1.095 1.095 0 0 1 1.276 1.771l-3.617 2.596a1.125 1.125 0 0 1-.63.18Zm3.602 3.963a1.08 1.08 0 0 1-.6-.18l-1.381-.916a1.095 1.095 0 0 1 1.215-1.816l1.366.915a1.08 1.08 0 0 1-.6 1.997ZM5.294 30.895a1.125 1.125 0 0 1-.63-.21L1.046 28.09a1.095 1.095 0 0 1 1.275-1.77l3.617 2.596a1.096 1.096 0 0 1 .255 1.5 1.156 1.156 0 0 1-.9.48Zm-3.602 3.963a1.08 1.08 0 0 1-.916-.48 1.096 1.096 0 0 1 .3-1.501l1.381-.916a1.096 1.096 0 0 1 1.216 1.816l-1.38.916a1.08 1.08 0 0 1-.601.165Z"/></symbol><symbol viewBox="0 0 16 16" id="icon-linkdn" xmlns="http://www.w3.org/2000/svg"><path d="M14.24 15.865H1.604a1.4 1.4 0 0 1-1.399-1.4V1.832a1.4 1.4 0 0 1 1.4-1.399h12.633a1.4 1.4 0 0 1 1.4 1.398v12.635c0 .772-.626 1.398-1.399 1.4ZM3.35 6.15l-.332 1.227h1.097l-.71 2.889a3.46 3.46 0 0 0-.085.695 1.239 1.239 0 0 0 1.391 1.36 2.204 2.204 0 0 0 1.873-1.212l-.28 1.116h1.554l.886-3.554c.223-.91.662-1.373 1.303-1.373a.778.778 0 0 1 .834.845c.002.169-.023.337-.073.498l-.453 1.636a2.5 2.5 0 0 0-.098.697 1.27 1.27 0 0 0 1.417 1.343c.883 0 1.5-.6 1.833-1.785l-.606-.235c-.237.677-.49 1.007-.773 1.007-.207 0-.316-.144-.316-.416a1.95 1.95 0 0 1 .065-.422l.446-1.594a3.48 3.48 0 0 0 .154-1.013 1.63 1.63 0 0 0-1.591-1.81c-.9.122-1.676.69-2.065 1.511l.31-1.388H6.737l-.336 1.202h1.11l-.686 2.735a1.793 1.793 0 0 1-1.567 1.187.435.435 0 0 1-.079-.006c-.208-.049-.33-.129-.33-.388.006-.214.037-.427.095-.633l1.046-4.12H3.35Zm2.013-2.713a.935.935 0 1 0 0 1.87v-.02a.949.949 0 0 0 .67-.27.915.915 0 0 0 .272-.658.934.934 0 0 0-.942-.922Z"/></symbol><symbol viewBox="0 0 16 16" id="icon-location" xmlns="http://www.w3.org/2000/svg"><path d="M14.24 15.865H1.604a1.4 1.4 0 0 1-1.399-1.4V1.832a1.4 1.4 0 0 1 1.4-1.399h12.633a1.4 1.4 0 0 1 1.4 1.398v12.635c0 .772-.626 1.398-1.399 1.4ZM3.35 6.15l-.332 1.227h1.097l-.71 2.889a3.46 3.46 0 0 0-.085.695 1.239 1.239 0 0 0 1.391 1.36 2.204 2.204 0 0 0 1.873-1.212l-.28 1.116h1.554l.886-3.554c.223-.91.662-1.373 1.303-1.373a.778.778 0 0 1 .834.845c.002.169-.023.337-.073.498l-.453 1.636a2.5 2.5 0 0 0-.098.697 1.27 1.27 0 0 0 1.417 1.343c.883 0 1.5-.6 1.833-1.785l-.606-.235c-.237.677-.49 1.007-.773 1.007-.207 0-.316-.144-.316-.416a1.95 1.95 0 0 1 .065-.422l.446-1.594a3.48 3.48 0 0 0 .154-1.013 1.63 1.63 0 0 0-1.591-1.81c-.9.122-1.676.69-2.065 1.511l.31-1.388H6.737l-.336 1.202h1.11l-.686 2.735a1.793 1.793 0 0 1-1.567 1.187.435.435 0 0 1-.079-.006c-.208-.049-.33-.129-.33-.388.006-.214.037-.427.095-.633l1.046-4.12H3.35Zm2.013-2.713a.935.935 0 1 0 0 1.87v-.02a.949.949 0 0 0 .67-.27.915.915 0 0 0 .272-.658.934.934 0 0 0-.942-.922Z"/></symbol><symbol viewBox="0 0 26 43" id="icon-location-big" xmlns="http://www.w3.org/2000/svg"><path d="m16.795 30.714 6.887-11.073a.76.76 0 0 0 .062-.122 12.542 12.542 0 0 0 1.852-6.552C25.596 6.031 19.953.39 13.016.39 6.082.389.44 6.03.44 12.967c0 2.31.642 4.573 1.856 6.554a.802.802 0 0 0 .054.108l6.64 11.117c-5.185.77-8.588 2.938-8.588 5.573 0 3.344 5.416 5.866 12.597 5.866 7.182 0 12.597-2.522 12.597-5.866 0-2.691-3.486-4.868-8.802-5.605ZM3.742 18.782a10.915 10.915 0 0 1-1.683-5.814c0-6.043 4.915-10.96 10.958-10.96 6.044 0 10.96 4.917 10.96 10.96 0 2.051-.581 4.062-1.682 5.815a.742.742 0 0 0-.062.123l-7.357 11.829a.804.804 0 0 0-.288.463l-1.754 2.821-9.024-15.1a.871.871 0 0 0-.068-.137ZM13 40.565c-6.47 0-10.978-2.237-10.978-4.246 0-1.972 3.92-3.57 7.873-4.06l2.229 3.73a.808.808 0 0 0 .688.395h.007a.81.81 0 0 0 .687-.382l2.345-3.772c5.095.56 8.126 2.481 8.126 4.088 0 2.01-4.508 4.247-10.977 4.247Z"/><path d="M17.645 12.968A4.65 4.65 0 0 0 13 8.323a4.65 4.65 0 0 0-4.645 4.645A4.65 4.65 0 0 0 13 17.613a4.65 4.65 0 0 0 4.645-4.645Zm-7.67 0a3.03 3.03 0 0 1 3.024-3.026 3.029 3.029 0 0 1 3.026 3.026A3.03 3.03 0 0 1 13 15.994a3.03 3.03 0 0 1-3.025-3.026Z"/></symbol><symbol viewBox="0 0 13 13" id="icon-phone" xmlns="http://www.w3.org/2000/svg"><path d="M12.165 12.922C5.769 12.93.915 8.019.921 1.678c0-.414.336-.751.75-.751H3.65a.75.75 0 0 1 .742.64 9.28 9.28 0 0 0 .761 2.546l.077.167a.53.53 0 0 1-.173.654c-.613.437-.847 1.318-.37 2.006a8.86 8.86 0 0 0 2.217 2.216c.687.477 1.568.243 2.006-.37a.53.53 0 0 1 .654-.173l.166.077a9.31 9.31 0 0 0 2.546.762.75.75 0 0 1 .64.741v1.98a.75.75 0 0 1-.75.749h-.001Z"/></symbol><symbol viewBox="0 0 60 61" id="icon-treat" xmlns="http://www.w3.org/2000/svg"><path d="M30.657 10.4a1.33 1.33 0 0 1-.54.032 17.21 17.21 0 0 1-6.903-3.588 1.039 1.039 0 0 1 1.423-1.509 15.658 15.658 0 0 0 6.05 3.061 1.024 1.024 0 0 1 .726 1.267 1.053 1.053 0 0 1-.756.736Zm9.083 50.393a1.563 1.563 0 0 1-.626.016 1.01 1.01 0 0 1-.726-.982c0-.086-.2-8.64-8.541-18.861a1.032 1.032 0 1 1 1.594-1.31 39.546 39.546 0 0 1 4.283 5.965c2.26 3.861 8.213 4.453 8.936.038.801-4.887-.176-8.448-.906-10.302a7.488 7.488 0 0 1-.455-3.858c.185-1.21.356-2.462.498-3.7a1.041 1.041 0 0 1 1.154-.922 1.04 1.04 0 0 1 .91 1.163 80.23 80.23 0 0 1-.512 3.773 5.177 5.177 0 0 0 .341 2.775c1.424 3.53 3.715 13.11-5.352 25.837a1.025 1.025 0 0 1-.597.368Z"/><path d="M8.424 60.809a1.025 1.025 0 0 1-.84-.441C-1.498 47.642.794 38.062 2.217 34.53c.355-.88.468-1.837.328-2.775a98.78 98.78 0 0 1-1.153-13.452c.014-8.983 6.52-16.27 14.548-16.27 1.618.007 3.21.308 4.704.877a9.349 9.349 0 0 0 6.563 0 13.396 13.396 0 0 1 4.704-.878 13.68 13.68 0 0 1 9.153 3.63A1.048 1.048 0 0 1 39.641 7.2a11.231 11.231 0 0 0-15.075-.355 1.01 1.01 0 0 1-1.324 0 11.388 11.388 0 0 0-7.317-2.734C9.05 4.111 3.47 10.49 3.47 18.346c.073 4.4.448 8.79 1.124 13.14a7.345 7.345 0 0 1-.455 3.857c-1.035 2.6-2.594 8.84 1.34 17.425.708 1.544 2.945 1.21 3.528-.386a1.04 1.04 0 1 1 1.95.712 22.917 22.917 0 0 0-1.508 6.718 1.039 1.039 0 0 1-.726.983.81.81 0 0 1-.3.014Z"/><path d="M19.897 48.012a.015.015 0 0 0-.014-.015 1.024 1.024 0 0 1-.513-.156l-8.817-5.247c-.214-.127-.438-.259-.563-.474a1.04 1.04 0 0 1 .934-1.56c.247.009.467.142.679.268l8.82 5.262a1.04 1.04 0 0 1-.512 1.936.014.014 0 0 1-.014-.014Zm5.31-7.459a1.053 1.053 0 0 1-.726-.314l-5.182-5.153a1.04 1.04 0 0 1 0-1.423l10.335-11.915a97.906 97.906 0 0 1 11.145-11.003l8.328-6.975a1.053 1.053 0 0 1 1.423.07l5.153 5.154a1.04 1.04 0 0 1 0 1.423l-6.96 8.342a98.016 98.016 0 0 1-10.919 11.203l-11.9 10.334a1.054 1.054 0 0 1-.697.257Zm-1.984-8.271a2.874 2.874 0 0 0 4.063 4.044l9.095-7.93a97.444 97.444 0 0 0 10.733-10.947l4.631-5.532a2.948 2.948 0 0 0-4.152-4.153l-5.518 4.618a95.204 95.204 0 0 0-10.947 10.747l-7.905 9.153Z"/></symbol><symbol viewBox="0 0 80 47" id="icon-vinir" xmlns="http://www.w3.org/2000/svg"><path d="M33.305 21.95c-4.158 0-7.563-3.935-7.563-8.778V3.607A3.011 3.011 0 0 1 28.754.596h9.12a3.012 3.012 0 0 1 3.011 3.011v9.565c0 4.843-3.405 8.778-7.58 8.778ZM28.754 3.128a.496.496 0 0 0-.514.513v9.566c0 3.422 2.276 6.28 5.134 6.28 2.857 0 5.133-2.807 5.133-6.28v-9.6a.497.497 0 0 0-.513-.513l-9.24.034Z"/><path d="M45.95 21.95c-4.175 0-7.563-3.935-7.563-8.778V3.607A3.012 3.012 0 0 1 41.38.596h9.138a3.012 3.012 0 0 1 2.994 3.011v9.565c0 4.843-3.388 8.778-7.563 8.778ZM41.38 3.128a.496.496 0 0 0-.496.513v9.566c0 3.422 2.276 6.28 5.133 6.28 2.858 0 5.134-2.807 5.134-6.28v-9.6a.496.496 0 0 0-.497-.513l-9.274.034Z"/><path d="M57.928 22.413c-3.799 0-6.844-3.594-6.844-7.991V5.866a2.823 2.823 0 0 1 2.823-2.806h8.196a2.823 2.823 0 0 1 2.823 2.806v8.556c-.068 4.397-3.182 7.99-6.998 7.99ZM53.838 5.49a.342.342 0 0 0-.325.325v8.555c0 3.029 1.985 5.493 4.415 5.493 2.43 0 4.432-2.464 4.432-5.493V5.815a.342.342 0 0 0-.325-.325h-8.197ZM21.327 22.413c-3.815 0-6.844-3.594-6.844-7.991V5.866a2.823 2.823 0 0 1 2.823-2.806h8.18a2.823 2.823 0 0 1 2.823 2.806v8.556c-.069 4.397-3.166 7.99-6.982 7.99ZM17.237 5.49a.325.325 0 0 0-.324.325v8.555c0 3.029 1.985 5.493 4.414 5.493 2.43 0 4.415-2.464 4.415-5.493V5.815a.325.325 0 0 0-.325-.325h-8.18Zm20.637 41.46h-9.12a3.012 3.012 0 0 1-3.012-3.012v-9.565c0-4.842 3.422-8.778 7.563-8.778s7.58 3.936 7.58 8.778v9.565a3.012 3.012 0 0 1-3.011 3.012Zm-4.569-18.822c-2.789 0-5.133 2.806-5.133 6.28v9.565a.498.498 0 0 0 .513.513h9.12a.495.495 0 0 0 .514-.513v-9.566c.068-3.507-2.208-6.313-5.014-6.313v.034Z"/><path d="M50.519 46.95H41.38a3.012 3.012 0 0 1-2.994-3.012v-9.565c0-4.842 3.422-8.778 7.563-8.778 4.14 0 7.563 3.936 7.563 8.778v9.565a3.012 3.012 0 0 1-2.994 3.012Zm-4.57-18.822c-2.788 0-5.133 2.806-5.133 6.28v9.565a.497.497 0 0 0 .497.513h9.137a.495.495 0 0 0 .496-.513v-9.566c.069-3.507-2.207-6.313-4.996-6.313v.034Z"/><path d="M62.034 44.537h-8.196a2.824 2.824 0 0 1-2.823-2.823v-8.556c0-4.397 3.114-7.99 6.844-7.99 3.73 0 6.93 3.593 6.93 7.99v8.556a2.823 2.823 0 0 1-2.755 2.823Zm-4.106-16.905c-2.43 0-4.415 2.463-4.415 5.492v8.556a.342.342 0 0 0 .325.342h8.196a.342.342 0 0 0 .325-.342v-8.556c0-3.029-1.985-5.493-4.431-5.493ZM25.417 44.537h-8.18a2.824 2.824 0 0 1-2.823-2.823v-8.556c0-4.397 3.097-7.99 6.845-7.99 3.747 0 6.844 3.593 6.844 7.99v8.556a2.824 2.824 0 0 1-2.686 2.823Zm-4.09-16.905c-2.43 0-4.415 2.463-4.415 5.492v8.556a.325.325 0 0 0 .325.342h8.18a.326.326 0 0 0 .325-.342v-8.556c0-3.029-1.985-5.493-4.415-5.493Z"/><path d="M63.609 42.381a1.25 1.25 0 0 1-.257-2.464 16.546 16.546 0 0 0 0-32.426 1.249 1.249 0 0 1 .496-2.446 19.045 19.045 0 0 1 0 37.319l-.24.017Z"/><path d="M63.608 35.93a1.283 1.283 0 0 1-1.026-.53 1.232 1.232 0 0 1 .29-1.711 12.405 12.405 0 0 0 4.518-6.126 5.561 5.561 0 0 1 0-7.683 12.406 12.406 0 0 0-4.517-6.126 1.231 1.231 0 0 1-.291-1.711 1.249 1.249 0 0 1 1.711-.29 14.784 14.784 0 0 1 5.698 8.298 1.25 1.25 0 0 1-.582 1.386 2.96 2.96 0 0 0 0 4.603 1.249 1.249 0 0 1 .582 1.386 14.784 14.784 0 0 1-5.664 8.35c-.22.12-.469.174-.718.154Z"/><path d="M70.025 28.675a5.048 5.048 0 1 1 4.193-4.962 4.637 4.637 0 0 1-4.193 4.962Zm0-7.443c-.907 0-1.71 1.13-1.71 2.48 0 1.353.77 2.465 1.71 2.465.941 0 1.712-1.13 1.712-2.464 0-1.335-.788-2.481-1.712-2.481ZM15.663 42.381h-.256a19.045 19.045 0 0 1 0-37.32 1.25 1.25 0 0 1 1.471.976 1.23 1.23 0 0 1-.975 1.472 16.547 16.547 0 0 0 0 32.425 1.25 1.25 0 0 1-.24 2.464v-.017Z"/><path d="M15.663 35.93a1.3 1.3 0 0 1-.736-.24 14.87 14.87 0 0 1-5.698-8.298 1.25 1.25 0 0 1 .582-1.386 2.96 2.96 0 0 0 0-4.603 1.249 1.249 0 0 1-.582-1.386 14.87 14.87 0 0 1 5.698-8.299 1.249 1.249 0 1 1 1.455 2.02 12.371 12.371 0 0 0-4.5 6.125 5.613 5.613 0 0 1 0 7.683 12.371 12.371 0 0 0 4.5 6.126 1.232 1.232 0 0 1 .29 1.71 1.249 1.249 0 0 1-1.009.548Z"/><path d="M9.23 28.675a5.048 5.048 0 1 1 4.175-4.962 4.62 4.62 0 0 1-4.175 4.962Zm0-7.443c-.907 0-1.712 1.13-1.712 2.48 0 1.353.77 2.465 1.712 2.465.94 0 1.71-1.13 1.71-2.464 0-1.335-.804-2.481-1.71-2.481Z"/></symbol></svg>